<svg width="40" height="40" viewBox="0 0 40 40" fill="none" xmlns="http://www.w3.org/2000/svg">
<g clip-path="url(#clip0_59_108)">
<path d="M12.7392 13.0139C12.7373 13.0054 12.7354 12.997 12.7314 12.9757C12.7292 12.963 12.7273 12.9651 12.7431 12.9612C12.765 12.9269 12.7711 12.8965 12.7849 12.849C12.8914 12.5794 12.9903 12.3267 13.1033 12.062C13.5228 11.5542 13.9067 11.0393 14.3408 10.5693C14.6539 10.2303 15.0338 9.95124 15.4112 9.62153C15.2692 9.51007 15.1345 9.4043 15.0078 9.28005C15.091 8.90572 15.0842 8.9003 14.7544 8.83984C14.6864 8.82737 14.6 8.7859 14.568 8.73155C14.4435 8.5202 14.2856 8.56871 14.0979 8.64575C13.6959 8.396 13.311 8.15125 12.9384 7.89084C13.0397 7.80052 13.123 7.71749 13.2194 7.65376C13.3 7.60055 13.3936 7.55 13.4861 7.53991C13.5196 7.53627 13.5568 7.66387 13.6098 7.71335C13.6796 7.77844 13.762 7.86323 13.8471 7.87336C14.1084 7.90446 14.2562 8.02418 14.2622 8.28925C14.2341 8.30811 14.2187 8.32439 14.2044 8.34148C14.2041 8.34179 14.2155 8.35164 14.2214 8.35704C14.2393 8.33363 14.2572 8.31021 14.2954 8.28766C14.444 8.28844 14.6023 8.42964 14.6823 8.20574C14.7687 7.96369 14.8602 7.94368 15.1187 8.02244C15.3522 8.09354 15.5994 8.16155 15.8401 8.15984C16.2605 8.15684 16.3646 8.22809 16.3397 8.57128C16.6772 8.55863 17.0185 8.54583 17.3775 8.54272C17.4539 8.57751 17.5181 8.63262 17.5701 8.62311C18.1528 8.51649 18.7333 8.39745 19.3154 8.28733C19.527 8.2473 19.639 8.1482 19.6486 7.91982C19.6534 7.80571 19.7366 7.69482 19.7844 7.58247C19.8097 7.58744 19.835 7.59242 19.8603 7.59739C19.8898 7.69021 19.9136 7.78526 19.95 7.87535C20.0148 8.03561 20.0633 8.17009 20.2997 8.20795C20.8831 8.30141 21.4553 8.46092 22.0354 8.57795C22.1742 8.60596 22.3557 8.62073 22.4656 8.55595C22.6931 8.42185 22.8869 8.23177 23.0922 8.06197C23.725 7.53862 24.4695 7.25269 25.2617 7.06791C26.0449 6.88523 26.8243 6.69232 27.4952 6.22364C27.5534 6.18297 27.5878 6.10922 27.6332 6.05084C27.7555 6.05084 27.8778 6.05084 28.0229 6.05084C28.1142 6.16729 28.2136 6.27606 28.2456 6.40151C28.3788 6.92431 28.5266 7.44735 28.6015 7.97953C28.6668 8.44282 28.6624 8.91896 28.652 9.38862C28.6242 10.6417 28.2674 11.7833 27.408 12.7387C27.3247 12.8314 27.2171 12.9029 27.0955 13.0083C26.9032 13.0981 26.736 13.1637 26.5689 13.2293C26.5764 13.2558 26.5839 13.2822 26.5914 13.3086C26.45 13.2821 26.3092 13.2514 26.1669 13.231C26.1007 13.2216 26.0315 13.2323 25.9637 13.2339C25.9998 13.293 26.0225 13.37 26.0745 13.408C26.2298 13.5216 26.205 13.6045 26.0526 13.6898C25.8547 13.8005 25.6613 13.9192 25.4619 14.027C25.3328 14.0968 25.2096 14.1146 25.0985 13.975C25.0511 13.9154 24.947 13.8397 24.8941 13.8552C24.7024 13.9114 24.6002 13.812 24.4711 13.705C24.3604 13.6132 24.2056 13.5344 24.1687 13.7981C24.1603 13.858 24.071 13.9333 24.004 13.9534C23.8495 14 23.8018 14.093 23.8022 14.2473C23.5494 14.385 23.3121 14.5126 23.065 14.6465C22.9923 14.7314 22.9267 14.8081 22.8674 14.8892C22.5395 15.3374 22.5187 16.0272 22.8405 16.3715C22.8491 16.3758 22.8684 16.374 22.8705 16.3897C22.9216 16.4952 22.9511 16.606 23.0234 16.6704C23.1726 16.8035 23.3446 16.9118 23.5023 17.047C23.3403 17.1752 23.2103 17.2907 23.4393 17.4354C23.5509 17.4353 23.7458 17.4603 23.7451 17.4778C23.737 17.6813 23.8803 17.7672 24.0092 17.8775C24.1262 17.9777 24.2714 18.0559 24.2763 18.2571C24.2779 18.3234 24.4426 18.3859 24.5372 18.4684C24.7956 19.2386 25.0501 19.9903 25.3029 20.7425C25.3781 20.9664 25.4484 21.1919 25.5065 21.4266C25.2577 21.5132 25.0233 21.59 24.7751 21.6551C24.5011 21.3333 24.2519 21.0135 23.9786 20.715C23.2569 19.9264 22.3794 19.3569 21.3754 18.9786C21.2933 18.9477 21.1811 18.9948 21.0619 19.0024C20.9391 18.984 20.8372 18.9689 20.7388 18.9341C20.8587 18.6996 20.9732 18.4838 21.092 18.2705C21.217 18.0463 21.1465 17.8645 20.8893 17.8578C20.2818 17.8421 19.6725 17.8395 19.0659 17.8703C18.7332 17.8871 18.6509 18.1021 18.826 18.3858C18.9141 18.5284 19.0128 18.6647 19.0883 18.8073C19.0369 18.8258 19.0039 18.8407 18.9504 18.8546C17.2956 19.2904 15.9931 20.178 15.0646 21.603C14.8378 21.5378 14.6314 21.471 14.4262 21.383C14.4982 21.0858 14.5688 20.8098 14.6611 20.5337C14.8299 20.5523 14.9772 20.5709 15.1359 20.5909C15.1699 20.5038 15.2053 20.4134 15.2425 20.3183C15.1336 20.2855 15.0512 20.2607 14.8766 20.2082C15.2404 20.0945 15.3081 19.8968 15.2286 19.6334C15.2209 19.6082 15.2508 19.5731 15.26 19.5417C15.3106 19.37 15.3595 19.1978 15.4105 19.0262C15.4315 18.9556 15.455 18.8855 15.4798 18.8161C15.521 18.7009 15.5641 18.5863 15.6065 18.4715C15.6305 18.343 15.6915 18.2316 15.7251 18.1126C15.7844 17.9022 16.0169 17.9221 16.111 17.8311C16.3614 17.5889 16.7767 17.3922 16.6551 16.905C16.7243 16.8438 16.7778 16.784 16.8448 16.7511C17.2904 16.5326 17.4569 15.6791 17.3155 15.3106C17.2827 15.2252 17.185 15.164 17.1126 15.0767C17.0642 15.0054 17.0203 14.949 16.9722 14.8745C16.6291 14.3278 15.8701 14.1052 15.3135 14.3767C15.2225 14.4147 15.1469 14.4514 15.0516 14.4873C14.7329 14.7155 14.4338 14.9445 14.1292 15.1524C14.0896 14.9922 14.0512 14.854 14.0224 14.7139C13.9582 14.4023 13.839 14.1035 13.5017 14.0284C13.2325 13.9685 13.211 13.7908 13.2074 13.6099C13.2009 13.2836 12.9973 13.1343 12.7392 13.0139ZM26.8618 11.9663C27.0084 11.7284 27.1714 11.4987 27.2986 11.2512C27.8911 10.099 27.859 8.90712 27.5057 7.69956C27.4925 7.65449 27.4564 7.61595 27.4151 7.54855C26.3784 8.21493 25.3281 8.83264 24.3432 9.62919C25.4108 10.2457 26.1199 11.1335 26.7178 12.1497C26.7707 12.083 26.8057 12.0389 26.8618 11.9663Z" fill="#FD8239"/>
<path d="M38.0516 22.039C37.9785 22.0681 37.9002 22.0646 37.8332 22.0901C36.9507 22.4267 36.0701 22.7683 35.1881 23.1065C34.8612 23.2318 34.5321 23.3514 34.1684 23.4792C34.0098 23.5211 33.8837 23.5494 33.7644 23.595C32.262 24.1688 30.7584 24.7402 29.2595 25.3229C28.3986 25.6576 27.5463 26.0137 26.6877 26.3542C26.5979 26.3898 26.4765 26.4233 26.3953 26.3925C25.6851 26.123 24.9742 25.8536 24.2762 25.5555C23.1139 25.059 21.9631 24.5363 20.8023 24.0362C20.5461 23.9259 20.2684 23.8638 19.9933 23.7703C19.9747 23.7499 19.962 23.7405 19.9545 23.7192C19.973 23.6779 19.9848 23.6502 20.0092 23.6105C21.1043 23.1578 22.1865 22.7164 23.2696 22.2769C23.7752 22.0716 24.2824 21.8699 24.7888 21.6666C25.0233 21.5899 25.2577 21.5132 25.5261 21.4219C26.3357 21.1139 27.1114 20.8205 27.9065 20.5261C28.8459 20.1795 29.767 19.8368 30.6854 19.487C31.0663 19.3419 31.4412 19.1818 31.8393 19.0248C31.9595 18.9982 32.0628 18.9848 32.1584 18.9505C32.6472 18.7751 33.134 18.5944 33.6215 18.4156C33.9243 18.2238 34.096 18.4767 34.27 18.6275C34.7806 19.0704 35.2649 19.5428 35.7722 19.9895C36.518 20.6462 37.2748 21.2906 38.0393 21.9229C38.0516 21.9437 38.0516 21.9818 38.0516 22.039Z" fill="#F7E373"/>
<path d="M19.9967 23.6225C19.9848 23.6502 19.973 23.6779 19.936 23.7231C19.3408 23.9719 18.7691 24.1996 18.201 24.4353C16.6756 25.068 15.1532 25.7077 13.6244 26.3324C13.5046 26.3813 13.3374 26.3609 13.2049 26.326C13.008 26.274 12.8226 26.18 12.6321 26.1043C11.8542 25.7949 11.0767 25.4842 10.2979 25.1769C9.89254 25.0169 9.4842 24.8644 9.07832 24.7057C8.16314 24.3481 7.24865 23.9887 6.32331 23.6199C6.28478 23.6018 6.25683 23.5938 6.21043 23.5815C6.05103 23.5308 5.91008 23.4845 5.76914 23.4383C4.53856 22.9655 3.30799 22.4927 2.0645 22.039C2.05157 22.0039 2.05157 21.9497 2.05157 21.8752C2.10664 21.8439 2.17811 21.851 2.21432 21.8192C2.83516 21.2741 3.45394 20.7267 4.06842 20.1746C4.65009 19.652 5.22464 19.1217 5.80556 18.5983C6.05625 18.3724 6.33711 18.2868 6.68818 18.4759C6.91484 18.5673 7.11138 18.6416 7.3221 18.7268C8.1277 19.039 8.91763 19.3441 9.71098 19.6404C10.4878 19.9305 11.2681 20.2115 12.0614 20.5081C12.3724 20.6288 12.6697 20.7358 12.9652 20.8474C13.4524 21.0314 13.9384 21.2184 14.425 21.4042C14.6314 21.471 14.8378 21.5378 15.072 21.6197C15.1408 21.6623 15.1784 21.6982 15.2234 21.7163C16.4734 22.2193 17.724 22.7209 18.975 23.2215C19.3146 23.3574 19.6561 23.4889 19.9967 23.6225Z" fill="#FCE87A"/>
<path d="M12.1891 6.05084C12.243 6.10121 12.2615 6.17312 12.3068 6.19873C13.0444 6.61502 13.8152 6.92459 14.6608 7.08873C15.6535 7.28141 16.5391 7.7285 17.259 8.4539C17.2816 8.4767 17.3161 8.48806 17.3524 8.51889C17.0185 8.54583 16.6772 8.55863 16.3397 8.57128C16.3646 8.22809 16.2605 8.15684 15.8401 8.15983C15.5994 8.16155 15.3522 8.09354 15.1187 8.02244C14.8602 7.94368 14.7687 7.96369 14.6823 8.20574C14.6023 8.42964 14.444 8.28844 14.2953 8.28765C14.2751 8.28678 14.275 8.28676 14.275 8.28676C14.2562 8.02418 14.1084 7.90446 13.8471 7.87335C13.762 7.86323 13.6796 7.77844 13.6098 7.71335C13.5568 7.66387 13.5196 7.53627 13.4861 7.53991C13.3936 7.55 13.3 7.60055 13.2194 7.65376C13.123 7.71749 13.0397 7.80052 12.92 7.88523C12.6936 7.79509 12.4978 7.69491 12.2655 7.57602C12.235 7.81521 12.2053 8.03653 12.1789 8.25823C12.0352 9.46694 12.0846 10.6418 12.8086 11.696C12.8973 11.8252 12.9954 11.9482 13.0891 12.0741C12.9903 12.3267 12.8914 12.5794 12.7655 12.8543C12.7348 12.9062 12.7311 12.9356 12.7273 12.9651C12.7273 12.9651 12.7292 12.963 12.7307 12.9628C12.5657 12.82 12.3737 12.6978 12.2376 12.5313C11.7898 11.9833 11.5455 11.3484 11.3677 10.6644C11.1834 9.95551 11.0802 9.24998 11.1387 8.52728C11.2074 7.67714 11.3237 6.83271 11.8011 6.06935C11.9217 6.05084 12.0439 6.05084 12.1891 6.05084Z" fill="#FB8437"/>
<path d="M19.9183 34.0508C19.8692 34.011 19.8507 33.951 19.8126 33.9342C18.8219 33.4972 17.8292 33.0647 16.8123 32.6148C16.7759 32.5884 16.7626 32.5819 16.7476 32.5786C16.7476 32.5786 16.7502 32.5769 16.7466 32.5627C16.7286 32.4724 16.7141 32.3965 16.7198 32.3219C16.9272 32.3798 17.1226 32.4184 17.3003 32.4964C17.8299 32.7287 18.3507 32.9804 18.8785 33.2169C19.2493 33.383 19.6259 33.5365 20.0096 33.7106C20.0993 33.7842 20.1795 33.843 20.2597 33.9017C20.2127 33.9442 20.1658 33.9868 20.1368 34.0401C20.0831 34.0508 20.0115 34.0508 19.9183 34.0508Z" fill="#F1C043"/>
<path d="M27.887 20.5271C27.1114 20.8205 26.3357 21.1139 25.5405 21.4119C25.4484 21.1918 25.3781 20.9664 25.3029 20.7425C25.0502 19.9902 24.7956 19.2385 24.5309 18.4518C24.4703 18.3197 24.4099 18.2261 24.3729 18.1243C24.2708 17.8436 24.3084 17.7848 24.6059 17.7223C25.06 17.6268 25.449 17.417 25.7849 17.099C26.2655 16.6439 26.6376 16.1214 26.863 15.501C26.9607 15.5745 27.0584 15.6481 27.1634 15.7584C27.2212 16.0595 27.2802 16.3226 27.3207 16.5884C27.4461 17.4107 27.5662 18.2337 27.685 19.0568C27.7556 19.5465 27.8199 20.037 27.887 20.5271Z" fill="#C96B30"/>
<path d="M27.9065 20.5261C27.8199 20.037 27.7556 19.5464 27.685 19.0568C27.5662 18.2336 27.4461 17.4106 27.3207 16.5884C27.2802 16.3226 27.2212 16.0595 27.1701 15.7739C27.6147 15.9661 28.0593 16.1811 28.5057 16.3923C28.6195 16.4462 28.7391 16.4882 28.8561 16.569C28.6564 17.03 28.8123 17.2914 29.2646 17.2882C29.29 17.288 29.3171 17.2885 29.3407 17.2964C29.6747 17.408 29.9496 17.6653 30.3227 17.6828C30.3418 17.6837 30.3662 17.7127 30.3767 17.734C30.5328 18.0527 30.8963 18.0656 31.1553 18.2295C31.319 18.3331 31.5535 18.3167 31.5234 18.6055C31.518 18.6578 31.6178 18.7171 31.6612 18.7786C31.7179 18.8591 31.7667 18.9449 31.8189 19.0285C31.4412 19.1818 31.0663 19.3419 30.6854 19.487C29.767 19.8368 28.8459 20.1795 27.9065 20.5261Z" fill="#DB9C44"/>
<path d="M26.861 15.4777C26.6376 16.1214 26.2655 16.6439 25.7849 17.099C25.449 17.417 25.06 17.6268 24.6059 17.7223C24.3084 17.7848 24.2708 17.8436 24.3729 18.1243C24.4099 18.2261 24.4703 18.3197 24.5264 18.4335C24.4426 18.3858 24.2779 18.3234 24.2763 18.257C24.2715 18.0559 24.1262 17.9777 24.0092 17.8775C23.8803 17.7671 23.737 17.6813 23.7451 17.4777C23.7458 17.4602 23.5509 17.4352 23.4393 17.4353C23.2104 17.2906 23.3403 17.1751 23.5217 17.0502C23.6441 17.063 23.7407 17.1036 23.8403 17.1124C24.0597 17.1318 24.2913 17.2299 24.5079 17.0405C24.6014 17.0071 24.6767 16.9774 24.7655 16.949C25.097 16.9407 25.2905 16.7342 25.4936 16.5111C26.0335 15.8913 25.8195 15.1544 25.3558 14.7569C25.1926 14.63 25.0391 14.5159 24.9053 14.3967C25.1054 14.335 25.0556 14.2545 24.927 14.1636C24.9124 14.2421 24.8977 14.3206 24.8648 14.4071C24.7468 14.3915 24.6471 14.3681 24.5321 14.3308C24.2839 14.2904 24.0508 14.2638 23.8178 14.2373C23.8018 14.093 23.8495 13.9999 24.004 13.9534C24.071 13.9332 24.1603 13.8579 24.1687 13.7981C24.2056 13.5344 24.3604 13.6131 24.4711 13.705C24.6002 13.812 24.7024 13.9114 24.8941 13.8551C24.947 13.8396 25.0511 13.9154 25.0985 13.975C25.2096 14.1145 25.3328 14.0968 25.4619 14.027C25.6613 13.9191 25.8547 13.8005 26.0526 13.6897C26.205 13.6045 26.2298 13.5215 26.0745 13.408C26.0225 13.3699 25.9998 13.293 25.9637 13.2338C26.0315 13.2323 26.1007 13.2215 26.1669 13.231C26.3093 13.2513 26.45 13.2821 26.5915 13.3086C26.5839 13.2821 26.5764 13.2557 26.5689 13.2293C26.736 13.1637 26.9032 13.0981 27.0875 13.0245C27.1917 13.3764 27.2787 13.7361 27.3711 14.1321C27.3901 14.223 27.4036 14.2777 27.4172 14.3324C27.4201 14.3413 27.4231 14.3503 27.4272 14.3887C27.4411 14.4569 27.4539 14.4955 27.4666 14.534C27.4879 14.6236 27.5092 14.7131 27.5276 14.8374C27.4953 14.8982 27.4659 14.9242 27.4364 14.9502C27.3681 14.9063 27.2997 14.8623 27.2154 14.7929C27.1759 14.7584 27.1524 14.7494 27.1288 14.7404C27.1097 14.7154 27.0906 14.6904 27.0604 14.6425C27.0298 14.6188 27.0104 14.6181 26.9909 14.6173C26.8276 14.8781 26.8465 15.1668 26.861 15.4777Z" fill="#FC8237"/>
<path d="M31.8393 19.0249C31.7667 18.945 31.7179 18.8591 31.6612 18.7787C31.6178 18.7172 31.518 18.6578 31.5234 18.6056C31.5535 18.3167 31.319 18.3331 31.1553 18.2295C30.8962 18.0656 30.5328 18.0527 30.3766 17.734C30.3662 17.7127 30.3418 17.6837 30.3227 17.6828C29.9496 17.6654 29.6747 17.408 29.3407 17.2964C29.3171 17.2885 29.29 17.288 29.2646 17.2882C28.8123 17.2914 28.6564 17.03 28.8649 16.5853C29.9544 17.0167 31.0309 17.4756 32.118 17.9089C32.5987 18.1005 33.1007 18.2402 33.6073 18.4095C33.134 18.5944 32.6472 18.7752 32.1584 18.9505C32.0628 18.9848 31.9595 18.9982 31.8393 19.0249Z" fill="#E09B43"/>
<path d="M27.4431 14.9639C27.4659 14.9242 27.4953 14.8982 27.5287 14.8574C27.552 14.8979 27.5713 14.9532 27.5981 15.0298C27.5263 15.0045 27.488 14.991 27.4431 14.9639Z" fill="#FB8437"/>
<path d="M27.4201 14.3146C27.4036 14.2778 27.3901 14.2231 27.3779 14.1511C27.3938 14.1881 27.4085 14.2424 27.4201 14.3146Z" fill="#FB8437"/>
<path d="M27.4692 14.5178C27.4538 14.4955 27.4411 14.4569 27.4292 14.4027C27.444 14.4252 27.4579 14.4634 27.4692 14.5178Z" fill="#FB8437"/>
<path d="M27.0014 14.6231C27.0104 14.6181 27.0298 14.6188 27.055 14.6276C27.0444 14.6335 27.0281 14.6312 27.0014 14.6231Z" fill="#FB8437"/>
<path d="M27.1288 14.7552C27.1523 14.7494 27.1759 14.7584 27.2068 14.7776C27.1856 14.7819 27.1572 14.776 27.1288 14.7552Z" fill="#FB8437"/>
<path d="M12.0468 20.4965C11.2681 20.2115 10.4878 19.9304 9.71099 19.6404C8.91764 19.3441 8.12771 19.039 7.32599 18.7079C7.61808 18.472 7.89947 18.2219 8.22771 18.0702C8.73445 17.8361 9.27813 17.681 9.79716 17.4708C10.3881 17.2315 10.976 16.9821 11.55 16.7064C11.6952 16.6366 11.7827 16.45 11.8967 16.3171C12.2493 16.0832 12.6018 15.8493 12.9689 15.6285C12.9319 15.8455 12.8703 16.0477 12.8304 16.2539C12.6562 17.1538 12.4863 18.0546 12.3191 18.9558C12.224 19.4686 12.1373 19.9829 12.0468 20.4965Z" fill="#D2943F"/>
<path d="M12.0614 20.5081C12.1373 19.9829 12.224 19.4686 12.3191 18.9558C12.4863 18.0546 12.6562 17.1538 12.8304 16.2539C12.8703 16.0477 12.9319 15.8455 12.9851 15.6214C13.0033 15.5297 13.02 15.4582 13.0516 15.3848C13.0998 15.5375 13.0997 15.7101 13.1731 15.8432C13.3482 16.1608 13.5555 16.4615 13.7545 16.766C14.1537 17.3769 14.7088 17.7114 15.4616 17.6882C15.4613 17.6879 15.4608 17.6875 15.4602 17.7076C15.3668 18.0503 15.2753 18.3734 15.1809 18.6956C15.0013 19.3085 14.8201 19.921 14.6395 20.5337C14.5689 20.8097 14.4982 21.0858 14.4263 21.383C13.9385 21.2184 13.4524 21.0314 12.9652 20.8474C12.6697 20.7358 12.3724 20.6288 12.0614 20.5081Z" fill="#C96C31"/>
<path d="M14.6611 20.5337C14.8201 19.921 15.0013 19.3085 15.1809 18.6956C15.2753 18.3734 15.3668 18.0503 15.465 17.7054C15.4703 17.6831 15.4708 17.671 15.4708 17.671L15.4618 17.6885C14.7088 17.7114 14.1537 17.3769 13.7545 16.766C13.5555 16.4615 13.3482 16.1608 13.1731 15.8432C13.0997 15.7101 13.0998 15.5375 13.0557 15.3662C13.0795 15.1367 13.114 14.924 13.1547 14.6733C12.9414 14.7473 12.7208 14.8251 12.4994 14.9004C12.2257 14.9936 12.2021 14.987 12.2687 14.7241C12.3871 14.2563 12.5386 13.7967 12.6718 13.3325C12.6984 13.2397 12.705 13.1414 12.73 13.0297C12.9973 13.1343 13.201 13.2836 13.2075 13.6099C13.2111 13.7908 13.2325 13.9685 13.5017 14.0284C13.839 14.1035 13.9582 14.4022 14.0224 14.7139C14.0512 14.854 14.0897 14.9922 14.1244 15.1692C14.08 15.3878 14.035 15.5684 13.9861 15.7677C13.9929 15.8614 14.0037 15.9365 14.0098 16.0147C14.0024 16.0321 14.0077 16.0397 14.0247 16.0597C14.1533 16.4406 14.3805 16.7136 14.7519 16.885C14.9966 16.9733 15.2285 17.049 15.4819 17.127C15.7122 17.1258 15.9256 17.1473 16.1287 17.1118C16.307 17.0806 16.4738 16.9857 16.6457 16.9189C16.7767 17.3922 16.3615 17.5889 16.111 17.8311C16.0169 17.9221 15.7844 17.9022 15.7251 18.1126C15.6916 18.2316 15.6305 18.343 15.6065 18.4715C15.5642 18.5863 15.521 18.7009 15.4798 18.8161C15.455 18.8855 15.4315 18.9556 15.4105 19.0262C15.3595 19.1978 15.3106 19.37 15.26 19.5416C15.2508 19.5731 15.2209 19.6082 15.2286 19.6334C15.3081 19.8968 15.2404 20.0945 14.8766 20.2082C15.0512 20.2607 15.1336 20.2855 15.2425 20.3183C15.2053 20.4134 15.1699 20.5038 15.1359 20.5909C14.9772 20.5709 14.8299 20.5523 14.6611 20.5337Z" fill="#FD8134"/>
<path d="M11.8785 16.3184C11.7827 16.45 11.6952 16.6366 11.55 16.7064C10.976 16.9821 10.3881 17.2315 9.79715 17.4708C9.27813 17.681 8.73444 17.8361 8.2277 18.0702C7.89946 18.2219 7.61808 18.472 7.31181 18.6969C7.11138 18.6416 6.91484 18.5673 6.7083 18.4792C7.67479 18.0543 8.65001 17.6401 9.6282 17.2329C10.3703 16.9239 11.1161 16.6238 11.8785 16.3184Z" fill="#E18E37"/>
<path d="M20.0092 23.6104C19.6561 23.4889 19.3146 23.3573 18.975 23.2214C17.724 22.7209 16.4734 22.2192 15.2234 21.7163C15.1784 21.6982 15.1408 21.6623 15.0923 21.618C15.9931 20.178 17.2956 19.2904 18.9508 18.8771C18.99 19.184 18.9697 19.4773 19.1842 19.729C19.2159 19.8328 19.2337 19.9288 19.2863 19.9997C19.5045 20.2945 19.8598 20.4519 20.1291 20.3558C20.5065 20.2213 20.8324 20.0274 20.83 19.5423C20.9188 19.3524 21.0008 19.179 21.0829 19.0055C21.1811 18.9947 21.2933 18.9477 21.3754 18.9786C22.3794 19.3569 23.2569 19.9263 23.9786 20.7149C24.2519 21.0134 24.5011 21.3333 24.7751 21.655C24.2824 21.8699 23.7752 22.0716 23.2696 22.2768C22.1866 22.7164 21.1043 23.1578 20.0092 23.6104Z" fill="#A6FDED"/>
<path d="M26.8512 11.9805C26.8057 12.0389 26.7707 12.083 26.7178 12.1497C26.1199 11.1335 25.4108 10.2457 24.3432 9.62916C25.3281 8.83262 26.3784 8.2149 27.4151 7.54852C27.4564 7.61593 27.4925 7.65447 27.5057 7.69954C27.859 8.9071 27.8911 10.099 27.2986 11.2512C27.1713 11.4987 27.0084 11.7284 26.8512 11.9805Z" fill="#F9E577"/>
<path d="M13.1033 12.062C12.9954 11.9482 12.8973 11.8252 12.8086 11.6959C12.0846 10.6418 12.0352 9.46691 12.1789 8.2582C12.2053 8.0365 12.235 7.81518 12.2655 7.57599C12.4978 7.69488 12.6936 7.79506 12.9077 7.90085C13.311 8.15122 13.6959 8.39597 14.107 8.66016C14.422 8.88589 14.7109 9.0922 14.9998 9.2985C15.1345 9.40427 15.2692 9.51004 15.4112 9.6215C15.0338 9.95121 14.6539 10.2303 14.3408 10.5693C13.9067 11.0392 13.5228 11.5542 13.1033 12.062Z" fill="#FBE57A"/>
<path d="M16.6552 16.905C16.4738 16.9856 16.307 17.0806 16.1287 17.1117C15.9256 17.1472 15.7122 17.1258 15.4825 17.109C15.4348 17.0479 15.4113 17.0041 15.3803 16.9663C15.1008 16.6253 14.9048 16.2504 14.8893 15.7813C14.9424 15.5389 14.9942 15.3169 15.0592 15.0836C15.1952 14.8949 15.318 14.7175 15.4526 14.523C15.4251 14.4903 15.377 14.4329 15.329 14.3755C15.8701 14.1051 16.6291 14.3278 16.9508 14.8777C16.839 14.8895 16.7444 14.8799 16.6316 14.8645C16.4338 14.844 16.3491 14.9421 16.3779 15.1007C16.4074 15.2627 16.5198 15.3453 16.7198 15.2842C16.8976 15.2809 17.082 15.3253 17.1172 15.0916C17.185 15.164 17.2827 15.2252 17.3155 15.3106C17.4569 15.679 17.2904 16.5326 16.8448 16.7511C16.7778 16.784 16.7244 16.8438 16.6552 16.905Z" fill="#434E4C"/>
<path d="M23.8022 14.2473C24.0508 14.2639 24.2839 14.2904 24.5158 14.3331C24.5144 14.399 24.4976 14.4564 24.5171 14.4969C24.5694 14.6056 24.6373 14.7071 24.6816 14.8105C24.6424 14.8144 24.6206 14.8192 24.5789 14.8144C24.401 14.7871 24.2427 14.7552 24.0852 14.759C24.0282 14.7604 23.9228 14.8529 23.9276 14.8937C23.9386 14.9864 23.9873 15.1337 24.0507 15.1508C24.2681 15.2095 24.5033 15.2499 24.7055 15.075C24.7317 15.1849 24.7519 15.2751 24.7524 15.3655C24.7544 15.74 24.7504 16.1146 24.7471 16.5084C24.6919 16.6263 24.6383 16.725 24.5639 16.8248C24.1632 16.9398 23.7987 16.8799 23.4526 16.7113C23.2507 16.6131 23.0627 16.4874 22.8684 16.374C22.8684 16.374 22.8491 16.3758 22.8405 16.3476C22.8065 15.7693 22.7895 15.2212 23.1411 14.7415C23.1498 14.7296 23.0983 14.6749 23.0749 14.6403C23.3121 14.5126 23.5494 14.385 23.8022 14.2473Z" fill="#454C4A"/>
<path d="M19.1067 18.8038C19.0128 18.6646 18.9141 18.5284 18.826 18.3857C18.6509 18.1021 18.7332 17.8871 19.0659 17.8702C19.6725 17.8395 20.2818 17.842 20.8893 17.8578C21.1465 17.8645 21.217 18.0462 21.092 18.2704C20.9732 18.4838 20.8587 18.6996 20.7298 18.9458C20.1844 19.5068 19.5876 19.4426 19.1067 18.8038Z" fill="#575E63"/>
<path d="M19.0883 18.8073C19.5876 19.4426 20.1844 19.5068 20.7263 18.9655C20.8372 18.9689 20.9391 18.984 21.0619 19.0023C21.0008 19.179 20.9188 19.3524 20.8146 19.5513C20.6573 19.6599 20.5305 19.763 20.3853 19.8222C19.9699 19.9915 19.5687 19.9261 19.1862 19.7097C18.9697 19.4773 18.99 19.184 18.9713 18.8782C19.0039 18.8407 19.0369 18.8258 19.0883 18.8073Z" fill="#F7EC79"/>
<path d="M22.8705 16.3897C23.0627 16.4873 23.2507 16.6131 23.4526 16.7113C23.7987 16.8798 24.1632 16.9398 24.5601 16.8418C24.5479 16.9199 24.5187 16.9821 24.4896 17.0442C24.2913 17.2299 24.0597 17.1318 23.8402 17.1124C23.7407 17.1036 23.6441 17.063 23.5267 17.0336C23.3446 16.9118 23.1726 16.8035 23.0234 16.6704C22.9511 16.606 22.9216 16.4952 22.8705 16.3897Z" fill="#434E4C"/>
<path d="M13.99 15.749C14.035 15.5684 14.08 15.3878 14.1299 15.1903C14.4338 14.9445 14.7329 14.7155 15.0442 14.5049C14.9864 14.6828 14.9163 14.8424 14.8332 15.0068C14.7952 15.0234 14.7702 15.0351 14.7226 15.0461C14.3512 15.0463 14.3319 15.0642 14.3307 15.394C14.3304 15.4779 14.3338 15.5619 14.3151 15.6476C14.1931 15.6826 14.0915 15.7158 13.99 15.749Z" fill="#BEEEF5"/>
<path d="M23.065 14.6465C23.0983 14.675 23.1498 14.7296 23.1411 14.7415C22.7895 15.2212 22.8065 15.7693 22.8319 16.3433C22.5187 16.0272 22.5395 15.3374 22.8674 14.8892C22.9267 14.8081 22.9923 14.7314 23.065 14.6465Z" fill="#0FBFCD"/>
<path d="M15.0078 9.28003C14.7109 9.09221 14.422 8.88591 14.1241 8.66518C14.2856 8.5687 14.4435 8.52019 14.568 8.73154C14.6 8.78589 14.6864 8.82736 14.7544 8.83983C15.0842 8.90029 15.091 8.90571 15.0078 9.28003Z" fill="#FB8437"/>
<path d="M14.8463 15.0019C14.9163 14.8424 14.9864 14.6828 15.0639 14.5057C15.1469 14.4514 15.2225 14.4146 15.3135 14.3767C15.377 14.4329 15.4251 14.4903 15.4526 14.523C15.318 14.7175 15.1952 14.8949 15.0411 15.0836C14.9553 15.064 14.9008 15.0329 14.8463 15.0019Z" fill="#0FBFCD"/>
<path d="M16.6498 14.8703C16.7444 14.8799 16.839 14.8895 16.955 14.8959C17.0203 14.949 17.0642 15.0054 17.1126 15.0767C17.082 15.3253 16.8976 15.2809 16.72 15.2644C16.6828 15.1176 16.6663 14.9939 16.6498 14.8703Z" fill="#BEEEF5"/>
<path d="M14.2751 8.28674C14.2572 8.31017 14.2393 8.33359 14.2215 8.357C14.2155 8.3516 14.2041 8.34175 14.2044 8.34144C14.2187 8.32435 14.2341 8.30807 14.2622 8.28921C14.275 8.28672 14.2751 8.28674 14.2751 8.28674Z" fill="#FB8437"/>
<path d="M20.2753 33.8987C20.1795 33.8429 20.0993 33.7842 20.0096 33.6867C19.9999 30.5808 19.9997 27.5138 19.9996 24.4259C20 24.1966 20.0002 23.9881 20.0005 23.7795C20.2684 23.8638 20.5461 23.9258 20.8023 24.0362C21.9631 24.5363 23.1139 25.059 24.2762 25.5554C24.9742 25.8536 25.6851 26.123 26.3953 26.3924C26.4765 26.4233 26.5979 26.3897 26.6877 26.3542C27.5463 26.0137 28.3986 25.6576 29.2595 25.3229C30.7584 24.7402 32.262 24.1688 33.7645 23.5949C33.8837 23.5494 34.0098 23.5211 34.151 23.4892C34.1567 23.964 34.1366 24.4343 34.1335 24.9048C34.1277 25.7935 34.1359 26.6823 34.126 27.571C34.1249 27.6678 34.0619 27.779 33.996 27.8579C33.4187 28.5498 32.5239 28.657 31.7626 29.0021C30.5242 29.5634 29.2579 30.0651 28.0029 30.5909C27.0719 30.981 26.1382 31.365 25.2091 31.7597C24.1497 32.2098 23.0936 32.6673 22.0372 33.1242C21.4882 33.3617 20.9419 33.605 20.3688 33.854C20.3349 33.8685 20.327 33.8752 20.3196 33.8826C20.31 33.887 20.3004 33.8914 20.2753 33.8987Z" fill="#D6B852"/>
<path d="M20.3289 33.884C20.3269 33.8759 20.335 33.8689 20.3497 33.8573C20.356 33.8661 20.3502 33.8769 20.3289 33.884Z" fill="#F1C043"/>
<path d="M19.9995 24.4468C19.9997 27.5138 19.9999 30.5809 20 33.6718C19.6259 33.5365 19.2493 33.383 18.8785 33.2169C18.3507 32.9805 17.8299 32.7287 17.3003 32.4964C17.1226 32.4185 16.9272 32.3799 16.716 32.3041C16.658 32.2502 16.6303 32.2008 16.5886 32.183C16.3073 32.0626 16.0258 31.9417 15.7392 31.8345C15.1972 31.6319 14.6497 31.4434 14.1086 31.2385C13.8947 31.1576 13.6382 31.096 13.4967 30.9409C13.2961 30.7212 13.057 30.659 12.8014 30.5608C12.0887 30.2867 11.3985 29.9563 10.689 29.6736C10.1906 29.4749 9.66966 29.3313 9.16912 29.1373C8.87552 29.0235 8.54175 29.0411 8.2754 28.8285C8.12655 28.7096 7.9311 28.6311 7.74384 28.58C7.5558 28.5287 7.35184 28.5339 7.15486 28.5143C6.64938 28.366 6.22827 28.0885 5.89893 27.686C5.83776 27.6112 5.82197 27.4846 5.8201 27.3813C5.81186 26.9274 5.81642 26.4732 5.81651 25.9717C5.81706 25.3314 5.81707 24.7386 5.81797 24.1458C5.81841 23.8533 6.08067 23.7104 6.35141 23.8467C6.47846 23.9106 6.61611 23.9541 6.75745 24.0103C6.79881 24.0956 6.82305 24.244 6.91063 24.3071C7.14454 24.4756 7.39629 24.6268 7.65792 24.7499C8.19092 25.0006 8.73662 25.225 9.2742 25.4664C9.8635 25.731 10.4456 26.0116 11.0381 26.2689C11.6708 26.5436 12.3111 26.8018 12.95 27.0624C13.3908 27.2422 13.8344 27.3771 14.3035 27.1381C15.0778 26.7435 15.8542 26.3529 16.6321 25.9651C17.4642 25.5504 18.2945 25.1315 19.1354 24.7344C19.4075 24.6059 19.7106 24.5409 19.9995 24.4468Z" fill="#E5C65A"/>
<path d="M19.9996 24.4259C19.7106 24.5408 19.4075 24.6059 19.1354 24.7344C18.2945 25.1314 17.4642 25.5503 16.6321 25.9651C15.8542 26.3528 15.0778 26.7434 14.3035 27.138C13.8344 27.3771 13.3908 27.2422 12.95 27.0624C12.3111 26.8018 11.6708 26.5436 11.0381 26.2688C10.4456 26.0115 9.8635 25.731 9.2742 25.4663C8.73661 25.2249 8.19091 25.0006 7.65792 24.7499C7.39629 24.6268 7.14453 24.4756 6.91063 24.3071C6.82304 24.244 6.79881 24.0955 6.75745 24.0102C6.6161 23.9541 6.47846 23.9106 6.35141 23.8467C6.08066 23.7104 5.8184 23.8532 5.81796 24.1457C5.81707 24.7385 5.81706 25.3314 5.81549 25.9479C5.79927 25.8933 5.77152 25.815 5.77116 25.7367C5.76766 24.9858 5.76879 24.235 5.76886 23.4612C5.91008 23.4845 6.05103 23.5308 6.21323 23.5947C6.26761 23.6183 6.30075 23.6241 6.33388 23.63C7.24865 23.9887 8.16314 24.348 9.07831 24.7057C9.48419 24.8643 9.89253 25.0169 10.2979 25.1769C11.0767 25.4842 11.8541 25.7949 12.6321 26.1043C12.8226 26.18 13.008 26.274 13.2049 26.3259C13.3374 26.3609 13.5046 26.3813 13.6244 26.3323C15.1532 25.7077 16.6756 25.068 18.201 24.4352C18.7691 24.1995 19.3408 23.9719 19.9294 23.7367C19.962 23.7405 19.9747 23.7498 19.9933 23.7703C20.0002 23.9881 20 24.1966 19.9996 24.4259Z" fill="#DCC15A"/>
<path d="M7.16371 28.5301C7.35185 28.5339 7.5558 28.5286 7.74385 28.58C7.93111 28.6311 8.12655 28.7096 8.2754 28.8284C8.54175 29.041 8.87552 29.0234 9.16912 29.1373C9.66966 29.3313 10.1906 29.4749 10.689 29.6735C11.3985 29.9563 12.0887 30.2867 12.8014 30.5607C13.057 30.659 13.2961 30.7212 13.4967 30.9409C13.6382 31.096 13.8947 31.1575 14.1087 31.2385C14.6497 31.4434 15.1972 31.6318 15.7392 31.8345C16.0258 31.9416 16.3073 32.0625 16.5886 32.183C16.6303 32.2008 16.658 32.2502 16.6959 32.3028C16.7141 32.3965 16.7286 32.4724 16.7461 32.5641C15.6357 32.1128 14.5216 31.6475 13.4092 31.1783C12.5146 30.8009 11.623 30.4163 10.7282 30.0391C9.67551 29.5955 8.62078 29.1565 7.56709 28.7152C7.43509 28.6599 7.30405 28.6024 7.16371 28.5301Z" fill="#E9C151"/>
<path d="M16.7527 32.5901C16.7626 32.5819 16.7759 32.5884 16.7952 32.6064C16.8027 32.6147 16.7772 32.6184 16.7772 32.6184C16.7772 32.6184 16.7579 32.6018 16.7527 32.5901Z" fill="#E9C151"/>
<path d="M6.3233 23.6198C6.30075 23.6241 6.26761 23.6183 6.23167 23.5991C6.25682 23.5938 6.28477 23.6017 6.3233 23.6198Z" fill="#E5C65A"/>
<path d="M24.5078 17.0405C24.5187 16.9821 24.5479 16.9199 24.5809 16.8407C24.6383 16.725 24.6919 16.6263 24.7544 16.4931C24.8585 15.9051 24.9966 15.35 24.699 14.8115C24.6373 14.7071 24.5694 14.6056 24.5171 14.4969C24.4976 14.4564 24.5144 14.399 24.531 14.3469C24.6471 14.3681 24.7468 14.3916 24.8668 14.4065C24.8871 14.3979 24.8857 14.4019 24.8857 14.4019C25.0391 14.516 25.1925 14.6301 25.3546 14.7807C25.4409 15.3971 25.4684 15.9724 25.187 16.5298C25.0331 16.6755 24.8925 16.8116 24.7519 16.9478C24.6767 16.9774 24.6014 17.0071 24.5078 17.0405Z" fill="#21CDD7"/>
<path d="M25.2005 16.5202C25.4684 15.9724 25.441 15.3971 25.3644 14.7935C25.8195 15.1544 26.0335 15.8914 25.4703 16.5104C25.3555 16.5194 25.278 16.5198 25.2005 16.5202Z" fill="#BEEEF5"/>
<path d="M25.187 16.5297C25.278 16.5197 25.3555 16.5194 25.4563 16.5197C25.2905 16.7343 25.097 16.9407 24.7654 16.949C24.8925 16.8116 25.0331 16.6755 25.187 16.5297Z" fill="#9FEBF5"/>
<path d="M24.8851 14.3985C24.8977 14.3206 24.9124 14.2421 24.927 14.1636C25.0556 14.2545 25.1054 14.3351 24.9053 14.3967C24.8857 14.4019 24.8871 14.3978 24.8851 14.3985Z" fill="#FD8239"/>
<path d="M13.9861 15.7676C14.0915 15.7158 14.1931 15.6825 14.3283 15.6574C14.4285 15.7036 14.495 15.7416 14.5539 15.7753C14.2355 16.1656 14.2948 16.3997 14.6626 16.4682C14.7767 16.3565 14.4427 16.1909 14.7177 16.1178C14.8044 16.3694 14.8843 16.6009 14.9598 16.8198C14.8768 16.8395 14.808 16.8559 14.7392 16.8723C14.3805 16.7136 14.1533 16.4406 14.0234 16.0523C14.0185 16.026 14.0145 16.0115 14.0145 16.0115C14.0037 15.9364 13.9929 15.8614 13.9861 15.7676Z" fill="#9FEBF5"/>
<path d="M14.7519 16.8849C14.808 16.8559 14.8768 16.8395 14.9598 16.8198C14.8843 16.6009 14.8044 16.3694 14.7201 16.1061C14.7167 16.0582 14.7168 16.0422 14.7223 16.0044C14.7243 15.953 14.7201 15.9233 14.7169 15.8738C14.7246 15.7877 14.7313 15.7217 14.7539 15.6582C14.8093 15.7078 14.8487 15.7548 14.888 15.8018C14.9048 16.2504 15.1008 16.6252 15.3803 16.9662C15.4113 17.0041 15.4348 17.0478 15.4611 17.1068C15.2285 17.049 14.9966 16.9733 14.7519 16.8849Z" fill="#54E1E5"/>
<path d="M15.4616 17.6882C15.4618 17.6885 15.4708 17.671 15.4708 17.671C15.4708 17.671 15.4703 17.6831 15.4655 17.6853C15.4608 17.6875 15.4613 17.6879 15.4616 17.6882Z" fill="#C96C31"/>
<path d="M14.0098 16.0147C14.0145 16.0115 14.0185 16.026 14.0198 16.0334C14.0077 16.0397 14.0024 16.0322 14.0098 16.0147Z" fill="#BEEEF5"/>
<path d="M19.1842 19.7291C19.5687 19.9261 19.9699 19.9915 20.3853 19.8222C20.5305 19.763 20.6573 19.6599 20.8079 19.5679C20.8324 20.0274 20.5065 20.2213 20.1291 20.3559C19.8598 20.4519 19.5045 20.2945 19.2863 19.9998C19.2337 19.9288 19.2159 19.8329 19.1842 19.7291Z" fill="#81C9D2"/>
<path d="M14.8893 15.7813C14.8487 15.7548 14.8093 15.7078 14.7513 15.6349C14.7368 15.4216 14.741 15.2342 14.7453 15.0468C14.7702 15.0351 14.7952 15.0234 14.8332 15.0068C14.9008 15.0329 14.9553 15.0639 15.0279 15.0949C14.9942 15.3169 14.9424 15.5389 14.8893 15.7813Z" fill="#21CDD7"/>
<path d="M16.6316 14.8645C16.6663 14.9939 16.6828 15.1175 16.699 15.2609C16.5198 15.3453 16.4074 15.2627 16.3779 15.1006C16.349 14.9421 16.4338 14.844 16.6316 14.8645Z" fill="#EEFBFC"/>
<path d="M24.6905 15.0554C24.5033 15.2499 24.2681 15.2095 24.0507 15.1508C23.9873 15.1336 23.9386 14.9864 23.9276 14.8937C23.9228 14.8529 24.0282 14.7604 24.0852 14.759C24.2427 14.7552 24.401 14.787 24.5832 14.827C24.6351 14.918 24.6628 14.9867 24.6905 15.0554Z" fill="#EEDCCB"/>
<path d="M24.7055 15.075C24.6628 14.9867 24.6351 14.918 24.6031 14.8366C24.6206 14.8191 24.6424 14.8143 24.6816 14.8105C24.9966 15.35 24.8585 15.905 24.756 16.4738C24.7505 16.1146 24.7544 15.74 24.7524 15.3655C24.7519 15.2751 24.7317 15.1848 24.7055 15.075Z" fill="#C96C31"/>
<path d="M14.7226 15.046C14.741 15.2342 14.7368 15.4216 14.7353 15.6323C14.7313 15.7217 14.7246 15.7878 14.7022 15.8775C14.6612 15.9175 14.6359 15.9338 14.6106 15.9502C14.6457 15.9755 14.6809 16.0009 14.7161 16.0262C14.7168 16.0422 14.7167 16.0582 14.7134 16.0859C14.4427 16.1909 14.7767 16.3565 14.6626 16.4681C14.2948 16.3997 14.2355 16.1656 14.5539 15.7753C14.495 15.7416 14.4285 15.7036 14.3487 15.6557C14.3338 15.5619 14.3304 15.4779 14.3307 15.3939C14.3319 15.0641 14.3512 15.0463 14.7226 15.046Z" fill="#EEFBFC"/>
<path d="M14.7223 16.0045C14.6809 16.0009 14.6457 15.9756 14.6105 15.9502C14.6359 15.9339 14.6612 15.9175 14.7012 15.8975C14.7201 15.9234 14.7243 15.953 14.7223 16.0045Z" fill="#9FEBF5"/>
</g>
<defs>
<clipPath id="clip0_59_108">
<rect width="36" height="28" fill="white" transform="translate(2 6)"/>
</clipPath>
</defs>
</svg>
